<?xml version="1.0" encoding="UTF-8" standalone="no"?>
<svg
   viewBox="0 0 500 500"
   version="1.1"
   id="svg1"
   sodipodi:docname="discord.svg"
   width="500"
   height="500"
   inkscape:version="1.3.2 (091e20e, 2023-11-25, custom)"
   xmlns:inkscape="http://www.inkscape.org/namespaces/inkscape"
   xmlns:sodipodi="http://sodipodi.sourceforge.net/DTD/sodipodi-0.dtd"
   xmlns="http://www.w3.org/2000/svg"
   xmlns:svg="http://www.w3.org/2000/svg">
  <defs
     id="defs1" />
  <sodipodi:namedview
     id="namedview1"
     pagecolor="#ffffff"
     bordercolor="#000000"
     borderopacity="0.25"
     inkscape:showpageshadow="2"
     inkscape:pageopacity="0.0"
     inkscape:pagecheckerboard="0"
     inkscape:deskcolor="#d1d1d1"
     inkscape:zoom="0.6296875"
     inkscape:cx="214.39206"
     inkscape:cy="416.87345"
     inkscape:window-width="1920"
     inkscape:window-height="1009"
     inkscape:window-x="-8"
     inkscape:window-y="-8"
     inkscape:window-maximized="1"
     inkscape:current-layer="svg1" />
  <!-- Font Awesome Free 5.15.4 by @fontawesome - https://fontawesome.com License - https://fontawesome.com/license/free (Icons: CC BY 4.0, Fonts: SIL OFL 1.1, Code: MIT License) -->
  <path
     d="m 410.89164,103.55814 a 1.1799503,1.1799503 0 0 0 -0.60098,-0.55065 381.56838,381.56838 0 0 0 -94.14902,-29.188823 1.4285264,1.4285264 0 0 0 -1.5127,0.71584 265.45813,265.45813 0 0 0 -11.72084,24.07098 352.29224,352.29224 0 0 0 -105.74399,0 243.49532,243.49532 0 0 0 -11.9057,-24.07098 1.4867373,1.4867373 0 0 0 -1.51348,-0.71584 380.48597,380.48597 0 0 0 -94.150593,29.189613 1.3467166,1.3467166 0 0 0 -0.619867,0.53176 C 29.010185,193.08883 12.583704,280.43583 20.641978,366.7012 a 1.5858531,1.5858531 0 0 0 0.601775,1.08162 383.61441,383.61441 0 0 0 115.497467,58.35956 1.4946036,1.4946036 0 0 0 1.62282,-0.53177 273.90578,273.90578 0 0 0 23.62811,-38.42075 1.4631383,1.4631383 0 0 0 -0.80158,-2.03581 252.64544,252.64544 0 0 1 -36.0813,-17.1903 1.4828041,1.4828041 0 0 1 -0.14553,-2.45902 c 2.4244,-1.81633 4.85038,-3.70583 7.16544,-5.6142 a 1.4308863,1.4308863 0 0 1 1.49461,-0.20138 c 75.69695,34.54658 157.64922,34.54658 232.4502,0 a 1.4253799,1.4253799 0 0 1 1.51348,0.18329 c 2.31585,1.90837 4.74104,3.81596 7.18354,5.63229 a 1.4820175,1.4820175 0 0 1 -0.12744,2.45902 237.09684,237.09684 0 0 1 -36.09861,17.17221 1.4749378,1.4749378 0 0 0 -0.78663,2.0539 307.61696,307.61696 0 0 0 23.61002,38.39951 1.4662848,1.4662848 0 0 0 1.62282,0.55065 382.34164,382.34164 0 0 0 115.6839,-58.3572 1.4804442,1.4804442 0 0 0 0.60177,-1.06353 c 9.64727,-99.73175 -16.15116,-186.36291 -68.3852,-263.16115 z m -237.59478,210.6164 c -22.79034,0 -41.56886,-20.91423 -41.56886,-46.59938 0,-25.68516 18.41431,-46.60096 41.56886,-46.60096 23.33549,0 41.93229,21.09751 41.56808,46.59938 0,25.68673 -18.41509,46.60096 -41.56808,46.60096 z m 153.69246,0 c -22.78956,0 -41.56808,-20.91423 -41.56808,-46.59938 0,-25.68516 18.41431,-46.60096 41.56808,-46.60096 23.33705,0 41.93307,21.09751 41.56886,46.59938 0,25.68673 -18.23181,46.60096 -41.56886,46.60096 z"
     id="path1"
     style="stroke-width:1" />
</svg>
